<svg xmlns="http://www.w3.org/2000/svg" xmlns:xlink="http://www.w3.org/1999/xlink" id="svg" version="1.1" viewBox="39.5 5.81 320.91 388.36"><g id="svgg"><path id="path0" d="M258.040 6.169 C 256.448 6.586,255.333 7.089,255.333 7.391 C 255.333 7.712,253.793 8.723,252.786 9.063 C 251.249 9.584,250.536 9.428,247.167 7.838 C 242.729 5.743,240.789 5.772,236.917 7.993 C 233.269 10.085,232.043 10.255,228.332 9.184 C 223.853 7.892,221.932 8.137,219.447 10.319 C 217.680 11.869,217.098 12.003,211.750 12.083 C 196.608 12.311,185.228 18.733,179.416 30.331 C 176.413 36.324,175.731 40.809,175.501 56.083 C 175.347 66.270,175.192 68.794,174.493 72.412 C 170.842 91.331,155.540 101.271,142.308 93.318 C 136.989 90.122,130.800 83.094,123.018 71.417 C 115.126 59.573,110.749 50.727,109.289 43.667 C 109.071 42.612,108.815 41.750,108.720 41.750 C 108.513 41.750,95.330 55.079,95.341 55.278 C 95.345 55.354,108.954 70.229,125.583 88.333 L 155.817 121.250 145.075 121.293 L 134.333 121.336 134.333 122.559 L 134.333 123.782 136.708 123.893 C 145.108 124.287,147.769 128.074,147.731 139.583 C 147.656 162.148,146.848 189.373,146.074 195.416 C 145.473 200.107,142.498 202.315,136.375 202.617 L 134.333 202.717 134.333 203.942 L 134.333 205.167 168.367 205.125 L 202.401 205.083 204.265 191.939 C 205.290 184.710,206.170 178.541,206.221 178.231 L 206.312 177.667 205.020 177.667 L 203.728 177.667 203.429 178.292 C 203.265 178.635,202.567 180.304,201.878 182.000 C 199.870 186.945,198.653 189.047,196.374 191.509 C 189.105 199.360,173.496 201.655,167.947 195.688 C 165.726 193.298,165.680 192.924,165.672 177.208 L 165.667 164.333 166.158 164.333 C 176.190 164.333,182.364 170.693,183.589 182.292 L 183.699 183.333 184.932 183.333 L 186.165 183.333 186.207 168.862 L 186.250 154.391 214.420 185.070 L 242.590 215.750 235.628 215.793 L 228.667 215.837 228.669 216.627 C 228.673 217.988,228.755 218.114,229.723 218.237 C 234.099 218.791,236.207 221.383,239.168 229.848 C 239.806 231.673,241.087 234.948,242.014 237.125 C 244.138 242.111,246.718 248.610,250.171 257.667 C 251.657 261.563,254.217 268.087,255.862 272.167 C 257.506 276.246,260.741 284.327,263.051 290.124 L 267.250 300.665 268.667 300.664 L 270.083 300.663 277.904 281.956 C 282.205 271.668,285.776 263.189,285.840 263.114 C 285.903 263.039,298.659 276.815,314.186 293.726 L 342.417 324.474 342.470 322.362 C 342.499 321.200,342.436 319.050,342.329 317.583 C 342.057 313.832,342.101 311.283,342.512 307.072 C 343.127 300.769,342.886 298.418,341.159 293.909 C 338.678 287.432,338.659 287.087,340.440 281.083 C 341.022 279.120,341.064 275.114,340.542 271.320 C 340.095 268.069,340.173 267.614,341.741 264.333 C 343.760 260.106,343.853 259.249,342.658 255.833 C 341.955 253.822,341.932 253.696,342.003 252.167 C 342.206 247.772,342.157 247.351,341.085 244.250 C 339.983 241.066,339.916 240.399,340.235 235.833 L 340.380 233.750 339.776 231.583 C 338.714 227.775,338.698 227.352,339.434 222.756 C 340.435 216.506,339.854 213.806,336.871 210.843 C 334.601 208.589,334.504 208.283,334.166 202.333 C 333.838 196.564,333.416 195.187,331.002 192.009 C 328.742 189.034,328.515 188.192,328.823 183.930 C 329.117 179.870,329.033 179.402,327.412 176.083 C 326.706 174.636,326.125 173.114,325.663 171.500 C 324.821 168.557,324.189 167.321,322.642 165.583 C 320.653 163.350,320.474 162.549,321.165 159.007 C 321.819 155.658,321.483 154.782,318.459 151.941 C 316.053 149.681,315.882 149.437,314.813 146.744 C 313.552 143.569,313.025 142.914,310.225 141.048 C 306.792 138.759,306.089 138.519,302.342 138.350 C 298.498 138.176,298.090 137.912,296.502 134.573 C 295.025 131.466,294.242 131.000,290.500 131.000 C 286.922 131.000,286.219 130.592,283.996 127.227 C 283.338 126.231,282.282 124.881,281.650 124.226 C 280.345 122.875,280.204 122.395,280.958 121.872 C 282.133 121.058,282.966 121.268,286.127 123.176 C 288.822 124.803,289.945 125.176,293.833 125.736 C 300.401 126.682,301.982 126.511,307.682 124.240 C 312.456 122.337,314.972 121.703,316.881 121.922 C 317.267 121.966,318.633 122.123,319.917 122.270 C 324.542 122.801,325.450 122.486,328.583 119.269 C 331.438 116.337,331.856 116.188,335.630 116.752 C 339.129 117.276,340.120 116.569,342.502 111.852 C 344.393 108.107,345.768 106.973,349.500 106.078 C 354.645 104.844,355.222 104.602,356.660 103.064 C 357.453 102.216,359.011 99.969,360.313 97.792 C 360.526 97.437,360.464 97.271,359.498 95.594 C 358.247 93.421,357.280 91.391,356.739 89.800 C 356.470 89.010,356.051 88.269,355.451 87.523 C 354.961 86.914,354.217 85.925,353.796 85.325 C 352.746 83.827,351.930 83.135,350.167 82.250 C 347.385 80.853,346.930 80.193,346.154 76.439 C 345.416 72.872,344.587 71.850,341.417 70.599 C 339.055 69.667,338.609 69.146,338.224 66.873 C 337.785 64.278,337.106 63.443,332.801 60.208 C 330.117 58.190,329.359 57.381,328.743 55.871 C 326.852 51.235,326.243 50.754,322.250 50.752 C 320.967 50.751,319.388 50.805,318.742 50.873 L 317.568 50.996 317.365 50.238 C 316.911 48.541,314.877 47.238,311.120 46.238 C 308.453 45.527,308.069 45.308,305.787 43.186 C 302.820 40.428,302.021 40.167,296.519 40.166 C 288.520 40.164,284.348 38.598,282.597 34.941 C 281.699 33.064,281.697 32.778,282.580 32.261 C 282.984 32.024,283.767 31.276,284.321 30.599 C 284.875 29.921,285.808 28.945,286.395 28.430 C 287.947 27.067,288.206 26.378,288.250 23.500 C 288.310 19.606,289.589 17.328,292.917 15.195 C 293.558 14.784,294.112 14.424,294.147 14.396 C 294.332 14.247,293.701 13.255,293.009 12.608 C 291.588 11.279,290.573 10.967,286.447 10.589 C 282.770 10.252,281.916 10.018,279.640 8.731 C 276.572 6.995,275.545 6.845,271.876 7.601 C 268.583 8.280,267.123 8.166,264.833 7.049 C 262.101 5.718,260.536 5.515,258.040 6.169 M47.000 122.558 L 47.000 123.783 48.625 123.885 C 53.823 124.210,57.280 126.451,58.444 130.250 C 58.918 131.799,58.920 193.293,58.446 195.495 C 57.773 198.620,56.575 200.122,53.939 201.147 C 50.564 202.459,47.672 203.183,47.238 202.824 C 47.035 202.655,47.000 202.814,47.000 203.896 L 47.000 205.167 61.500 205.167 L 76.000 205.167 76.000 203.941 L 76.000 202.716 74.736 202.609 C 69.145 202.136,65.953 198.854,65.165 192.769 C 65.047 191.860,65.005 182.793,65.036 165.112 L 65.083 138.807 92.000 172.567 L 118.917 206.327 119.875 206.330 L 120.833 206.333 120.819 183.792 C 120.811 171.394,120.751 155.550,120.684 148.583 C 120.548 134.396,120.618 132.118,121.256 129.901 C 122.515 125.528,125.151 123.928,131.333 123.781 L 132.663 123.750 132.665 122.542 L 132.667 121.333 117.750 121.333 L 102.833 121.333 102.833 122.557 L 102.833 123.782 105.044 123.888 C 110.810 124.164,113.445 126.022,114.450 130.516 C 114.731 131.775,114.825 164.173,114.559 168.029 L 114.459 169.474 95.521 145.404 L 76.583 121.334 61.792 121.333 L 47.000 121.333 47.000 122.558 M181.783 149.626 C 181.940 150.006,180.438 152.365,179.194 153.690 C 176.324 156.749,172.526 158.365,166.542 159.074 L 165.667 159.178 165.667 146.193 C 165.667 139.052,165.712 132.981,165.768 132.703 C 165.866 132.214,166.140 132.491,173.783 140.807 C 178.135 145.542,181.735 149.511,181.783 149.626 M169.375 215.792 L 153.167 215.835 153.167 216.917 C 153.167 217.928,153.191 218.000,153.542 218.002 C 157.771 218.022,161.631 219.234,162.938 220.953 C 164.634 223.184,164.712 224.052,164.496 238.250 C 164.396 244.850,164.326 259.137,164.341 270.000 C 164.365 287.806,164.341 289.848,164.095 290.750 C 163.072 294.508,160.883 296.017,156.083 296.272 C 153.591 296.404,153.167 296.696,153.167 298.275 L 153.167 298.833 173.583 298.833 L 194.000 298.833 194.000 297.608 L 194.000 296.382 192.042 296.287 C 183.248 295.859,182.140 292.749,182.669 269.988 C 182.783 265.090,182.902 261.054,182.934 261.018 C 183.398 260.492,186.463 261.969,188.054 263.485 C 189.639 264.996,189.585 264.916,206.379 290.917 L 211.438 298.750 224.136 298.793 L 236.833 298.835 236.833 297.608 L 236.833 296.381 235.847 296.278 C 232.143 295.891,230.042 293.787,224.747 285.167 C 219.518 276.655,210.601 263.032,208.659 260.587 L 207.712 259.395 208.564 259.096 C 212.934 257.563,218.091 253.630,221.258 249.417 C 229.168 238.892,223.787 222.580,210.875 217.941 C 205.163 215.889,201.659 215.708,169.375 215.792 M192.667 220.893 C 203.123 223.384,208.117 233.027,204.633 244.000 C 201.892 252.632,196.059 256.167,184.559 256.167 L 182.833 256.167 182.833 238.315 L 182.833 220.464 187.208 220.549 C 190.322 220.610,191.896 220.709,192.667 220.893 M272.659 248.482 C 277.659 253.926,281.774 258.440,281.803 258.514 C 281.832 258.588,280.599 261.650,279.065 265.318 L 276.274 271.988 275.995 271.202 C 275.842 270.770,275.404 269.796,275.022 269.038 C 274.639 268.280,273.323 265.093,272.097 261.955 C 270.870 258.817,268.276 252.275,266.331 247.417 C 264.386 242.558,262.691 238.283,262.564 237.917 L 262.334 237.250 262.951 237.917 C 263.290 238.283,267.659 243.038,272.659 248.482 M45.667 287.019 C 42.432 287.537,39.495 290.264,39.504 292.741 C 39.509 294.210,40.798 296.521,41.889 297.018 C 42.199 297.159,45.535 295.854,45.965 295.424 C 45.996 295.392,45.828 294.982,45.590 294.513 C 45.137 293.619,44.500 293.519,44.500 294.342 C 44.500 295.045,42.725 295.702,41.827 295.331 C 38.831 294.090,40.997 289.837,45.309 288.496 C 49.115 287.313,51.819 289.851,49.445 292.377 C 49.101 292.743,48.981 293.333,49.251 293.333 C 49.335 293.333,51.833 292.131,51.833 292.090 C 51.833 292.069,51.683 291.878,51.500 291.667 C 51.282 291.415,51.167 291.043,51.167 290.591 C 51.167 288.988,49.901 287.518,48.126 287.058 C 47.169 286.810,46.993 286.807,45.667 287.019 M48.481 295.396 C 43.568 297.130,41.823 302.266,45.502 304.164 C 48.213 305.563,53.097 303.589,54.658 300.464 C 56.543 296.693,53.013 293.796,48.481 295.396 M53.096 296.434 C 55.529 297.588,54.066 300.740,50.231 302.605 C 47.855 303.761,46.026 303.765,44.953 302.616 C 42.502 299.993,49.462 294.709,53.096 296.434 M56.757 301.724 C 56.588 301.848,56.502 302.035,56.567 302.140 C 56.896 302.672,48.702 307.771,47.787 307.604 C 46.614 307.389,47.065 308.673,49.143 311.467 C 51.625 314.803,58.755 312.067,59.591 307.457 C 59.799 306.307,59.535 305.439,58.403 303.554 C 57.112 301.404,57.145 301.441,56.757 301.724 M58.141 304.846 C 60.019 308.454,53.697 313.505,50.256 311.147 C 49.648 310.731,48.487 308.980,48.754 308.883 C 48.843 308.850,50.792 307.668,53.083 306.257 C 57.831 303.332,57.413 303.449,58.141 304.846 M60.667 310.521 C 58.649 312.149,58.888 312.571,61.152 311.378 C 62.748 310.537,62.816 310.455,62.407 309.870 C 62.063 309.379,62.099 309.365,60.667 310.521 M62.001 312.886 C 60.182 313.465,59.260 315.289,59.659 317.519 C 59.972 319.273,59.468 320.279,57.964 320.908 C 55.816 321.805,54.917 319.420,56.580 317.239 C 56.945 316.761,57.016 316.051,56.684 316.201 C 56.173 316.432,53.679 318.294,53.673 318.449 C 53.670 318.559,53.870 318.746,54.118 318.866 C 54.444 319.023,54.607 319.264,54.704 319.735 C 55.093 321.610,56.560 322.329,58.626 321.655 C 60.892 320.917,61.824 319.183,61.338 316.609 C 61.000 314.816,61.627 313.749,63.133 313.552 C 64.761 313.340,65.016 314.808,63.709 316.869 C 63.132 317.778,63.684 317.789,64.981 316.894 C 66.233 316.030,66.361 315.853,65.833 315.715 C 65.568 315.646,65.500 315.487,65.499 314.939 C 65.498 313.182,63.941 312.268,62.001 312.886 M70.300 321.393 C 70.134 321.519,70.051 321.742,70.100 321.929 C 70.262 322.550,62.932 328.590,62.189 328.448 C 61.118 328.243,61.091 328.672,62.099 329.909 C 62.904 330.897,63.333 330.955,63.333 330.074 C 63.333 329.624,64.131 328.894,68.150 325.664 C 70.521 323.759,70.944 323.480,71.344 323.560 C 72.259 323.743,72.280 323.283,71.408 322.172 C 70.973 321.619,70.610 321.169,70.600 321.172 C 70.591 321.175,70.456 321.274,70.300 321.393 M321.484 324.146 C 320.473 324.360,319.808 324.869,318.299 326.585 C 316.824 328.264,316.621 328.840,317.592 328.596 C 318.406 328.392,325.810 334.619,325.587 335.321 C 325.482 335.652,325.890 336.088,326.153 335.925 C 326.731 335.568,329.019 332.528,329.263 331.793 C 330.483 328.123,325.560 323.284,321.484 324.146 M72.506 324.409 C 72.395 324.543,72.355 324.734,72.417 324.833 C 72.624 325.169,72.013 325.811,68.792 328.635 C 65.350 331.653,65.064 331.862,64.557 331.730 C 63.850 331.545,63.813 332.057,64.478 332.829 C 65.190 333.656,65.667 333.674,65.667 332.874 C 65.667 332.336,66.096 331.891,69.333 329.082 C 70.479 328.088,71.626 327.083,71.882 326.850 L 72.347 326.425 71.945 327.504 C 68.725 336.163,68.124 338.383,69.291 337.308 C 73.308 333.606,76.931 330.643,77.363 330.707 C 78.271 330.840,78.394 330.357,77.667 329.518 C 76.958 328.698,76.504 328.673,76.495 329.453 C 76.488 330.069,76.488 330.069,73.408 332.775 L 70.733 335.126 71.715 332.355 C 72.255 330.830,73.024 328.660,73.423 327.532 L 74.148 325.481 73.555 324.824 C 72.897 324.096,72.798 324.057,72.506 324.409 M324.385 325.874 C 326.454 326.977,328.140 329.054,328.298 330.697 C 328.424 332.003,326.998 334.314,326.380 333.805 C 324.389 332.163,318.905 327.452,318.870 327.353 C 318.782 327.104,320.513 325.506,321.048 325.342 C 321.930 325.072,323.285 325.288,324.385 325.874 M331.272 326.919 C 331.011 327.599,332.079 328.499,332.721 328.140 C 333.090 327.933,333.076 327.287,332.695 326.942 C 332.310 326.594,331.403 326.579,331.272 326.919 M312.675 332.741 C 311.760 333.668,311.680 334.344,312.517 334.078 C 313.055 333.907,313.771 334.510,319.649 340.093 C 319.868 340.302,320.095 340.760,320.152 341.111 C 320.317 342.125,320.640 341.931,322.983 339.417 L 325.156 337.083 324.125 336.042 C 323.557 335.469,323.043 335.000,322.981 335.000 C 322.702 335.000,322.716 335.526,323.011 336.104 C 323.531 337.124,323.439 337.516,322.397 338.737 C 321.882 339.340,321.401 339.833,321.327 339.833 C 321.191 339.833,315.078 334.170,314.366 333.384 C 314.154 333.151,314.002 332.800,314.027 332.605 C 314.075 332.235,313.901 331.833,313.693 331.833 C 313.626 331.833,313.168 332.242,312.675 332.741 M81.611 334.278 C 81.550 334.339,81.500 334.627,81.500 334.918 C 81.500 335.794,75.012 342.462,74.332 342.285 C 73.441 342.052,73.478 342.740,74.407 343.657 C 75.396 344.634,75.867 344.705,75.803 343.868 C 75.758 343.278,76.137 342.748,77.696 341.221 L 78.917 340.025 80.556 341.595 L 82.195 343.165 80.977 344.515 C 79.546 346.099,78.953 346.560,78.524 346.424 C 77.661 346.150,77.754 346.834,78.710 347.790 C 79.662 348.742,80.350 348.839,80.078 347.983 C 79.814 347.153,86.526 340.182,87.351 340.428 C 88.172 340.672,88.058 339.978,87.123 339.043 C 86.166 338.086,85.484 337.994,85.758 338.859 C 85.898 339.300,85.378 340.059,84.012 341.409 L 82.839 342.568 81.165 340.924 L 79.491 339.279 80.964 337.806 C 82.207 336.563,82.521 336.333,82.974 336.333 C 83.843 336.333,83.821 335.918,82.904 334.987 C 82.123 334.195,81.846 334.043,81.611 334.278 M309.158 336.492 C 306.624 338.174,305.459 339.861,306.803 339.901 C 307.763 339.929,314.090 346.668,313.893 347.452 C 313.698 348.230,314.305 348.100,315.258 347.159 C 316.235 346.194,316.246 345.833,315.299 345.833 C 314.894 345.833,314.540 345.556,313.328 344.292 L 311.850 342.750 312.374 342.208 C 313.042 341.519,312.824 341.485,315.833 342.750 C 318.846 344.017,318.623 343.983,319.305 343.280 C 319.869 342.698,319.637 341.940,319.013 342.325 C 318.747 342.490,318.321 342.352,315.709 341.254 L 313.835 340.467 313.936 339.834 C 314.340 337.306,311.219 335.124,309.158 336.492 M311.666 337.932 C 313.063 339.239,313.141 340.159,311.966 341.435 L 311.276 342.183 310.292 341.216 C 309.750 340.685,309.003 339.890,308.632 339.451 L 307.956 338.651 308.353 338.220 C 309.544 336.927,310.502 336.843,311.666 337.932 M88.530 340.940 C 88.446 341.091,88.413 341.353,88.458 341.523 C 88.573 341.965,88.312 342.308,85.250 345.737 C 82.323 349.015,81.976 349.339,81.519 349.220 C 80.463 348.944,81.291 350.462,82.611 351.221 C 82.992 351.441,83.333 351.041,83.225 350.502 C 83.144 350.096,83.306 349.835,84.436 348.558 C 89.571 342.751,89.489 342.833,90.160 342.833 C 90.955 342.833,90.859 342.384,89.880 341.521 C 88.809 340.577,88.748 340.551,88.530 340.940 M303.125 342.071 C 301.122 342.786,300.294 344.620,300.901 346.992 C 302.599 353.617,311.604 355.152,311.119 348.733 C 310.820 344.786,306.232 340.962,303.125 342.071 M305.782 343.437 C 306.867 343.953,308.725 345.905,309.479 347.320 C 311.525 351.157,308.457 353.421,304.986 350.636 C 300.376 346.937,301.014 341.166,305.782 343.437 M91.074 344.585 C 89.095 345.590,88.462 347.680,89.485 349.833 C 90.275 351.496,90.138 352.406,88.938 353.459 C 87.099 355.074,85.364 353.077,86.417 350.558 C 87.062 349.013,86.486 349.163,85.001 350.927 C 83.773 352.385,83.721 352.525,84.375 352.597 C 84.581 352.620,84.792 352.645,84.844 352.653 C 84.896 352.660,85.104 352.962,85.307 353.322 C 86.180 354.875,87.508 355.257,89.146 354.427 C 91.351 353.310,92.082 351.094,91.000 348.807 C 90.173 347.059,90.399 345.905,91.699 345.233 C 93.098 344.510,94.053 345.863,93.417 347.667 C 92.868 349.223,93.341 349.329,94.494 347.909 C 95.316 346.895,95.434 346.500,94.913 346.500 C 94.783 346.500,94.603 346.217,94.508 345.864 C 94.099 344.343,92.629 343.796,91.074 344.585 M297.783 346.452 C 296.897 347.108,296.809 347.551,297.547 347.636 C 297.810 347.667,298.121 347.864,298.274 348.097 C 298.559 348.531,301.216 355.506,301.130 355.592 C 301.102 355.620,300.206 355.010,299.138 354.237 L 297.198 352.832 296.654 351.374 C 296.347 350.549,296.105 349.577,296.097 349.133 C 296.090 348.702,296.008 348.275,295.917 348.184 C 295.754 348.021,291.997 350.688,292.003 350.962 C 292.009 351.259,292.284 351.460,292.684 351.459 C 292.964 351.459,293.796 351.951,295.041 352.854 L 296.965 354.250 297.627 356.000 C 297.991 356.962,298.269 357.773,298.246 357.801 C 298.182 357.877,291.783 353.170,291.548 352.875 C 291.422 352.715,291.400 352.520,291.491 352.350 C 291.584 352.176,291.556 351.968,291.412 351.772 C 291.189 351.467,290.805 351.683,289.006 353.121 C 288.764 353.314,289.339 353.745,289.777 353.699 C 290.190 353.657,291.004 354.194,294.895 357.077 C 300.489 361.223,300.345 361.204,299.000 357.616 C 298.542 356.393,298.167 355.340,298.167 355.276 C 298.167 355.213,299.114 355.873,300.271 356.743 C 303.254 358.987,303.223 359.222,300.816 352.643 C 299.542 349.162,298.965 347.365,298.967 346.883 C 298.971 345.849,298.720 345.758,297.783 346.452 M295.284 349.875 C 295.599 350.290,296.167 352.017,295.944 351.881 C 295.158 351.403,294.167 350.576,294.167 350.398 C 294.167 349.942,295.029 349.538,295.284 349.875 M100.667 350.917 C 100.511 351.105,100.506 351.223,100.649 351.396 C 100.938 351.744,100.809 351.968,97.970 356.031 C 95.570 359.467,94.937 360.187,94.535 359.938 C 94.461 359.892,94.311 359.997,94.203 360.171 C 94.027 360.452,94.125 360.572,95.094 361.264 C 96.310 362.132,96.389 362.122,96.423 361.105 C 96.444 360.475,98.557 357.000,98.918 357.000 C 98.987 357.000,102.281 359.271,102.555 359.507 C 102.683 359.618,101.036 362.115,100.279 362.958 C 100.094 363.165,99.770 363.333,99.560 363.333 C 98.654 363.333,98.815 363.881,99.949 364.663 C 100.985 365.378,101.042 365.396,101.263 365.094 C 101.437 364.856,101.448 364.721,101.306 364.550 C 100.805 363.947,106.709 355.698,107.355 356.097 C 107.540 356.211,107.826 355.896,107.831 355.573 C 107.837 355.145,105.779 353.955,105.557 354.258 C 105.409 354.460,105.396 354.639,105.512 354.856 C 105.627 355.070,105.617 355.283,105.481 355.542 C 105.326 355.835,103.469 358.541,103.239 358.809 C 103.165 358.894,99.500 356.306,99.500 356.168 C 99.500 355.592,101.948 352.667,102.430 352.667 C 102.732 352.667,103.000 352.389,103.000 352.076 C 103.000 352.002,101.054 350.667,100.946 350.667 C 100.907 350.667,100.781 350.779,100.667 350.917 M284.083 356.256 C 283.808 356.482,283.133 356.944,282.583 357.282 C 279.504 359.176,279.315 359.321,279.493 359.654 C 279.595 359.844,279.780 359.939,279.960 359.892 C 280.397 359.778,280.719 360.202,283.208 364.179 C 285.595 367.992,285.798 368.391,285.517 368.730 C 285.389 368.884,285.403 369.031,285.565 369.253 C 285.810 369.588,285.460 369.778,290.549 366.545 L 291.682 365.826 291.049 364.664 C 290.378 363.431,290.374 363.427,290.024 363.648 C 289.851 363.758,289.842 363.871,289.983 364.135 C 290.482 365.068,290.024 365.833,288.305 366.935 C 286.845 367.871,287.074 367.978,285.616 365.674 L 284.354 363.682 285.213 363.186 C 286.041 362.708,286.089 362.700,286.534 362.963 C 287.304 363.418,287.384 363.026,286.730 362.000 C 286.409 361.496,286.090 360.987,286.021 360.868 C 285.769 360.436,285.353 360.824,285.447 361.404 C 285.529 361.912,285.479 361.985,284.719 362.452 L 283.902 362.955 282.742 361.102 C 281.338 358.858,281.337 359.099,282.746 358.223 C 283.861 357.529,284.699 357.314,284.916 357.666 C 285.100 357.964,285.596 358.147,285.828 358.003 C 286.008 357.892,285.917 357.648,285.403 356.849 C 284.652 355.685,284.734 355.722,284.083 356.256 M108.613 356.276 C 108.553 356.336,108.545 356.654,108.596 356.984 C 108.759 358.059,103.619 365.996,102.930 365.732 C 102.728 365.655,102.356 366.273,102.526 366.401 C 103.435 367.082,108.411 369.980,108.482 369.870 C 108.538 369.785,108.878 369.290,109.238 368.771 C 110.024 367.638,109.888 367.144,108.997 367.893 C 108.212 368.554,107.630 368.474,105.953 367.474 C 105.093 366.961,104.557 366.542,104.623 366.433 C 104.809 366.124,107.035 362.585,107.064 362.552 C 107.288 362.289,108.690 363.599,108.629 364.014 C 108.568 364.432,108.891 365.036,109.057 364.815 C 110.292 363.178,110.748 361.438,109.692 362.394 C 109.284 362.763,109.118 362.741,108.271 362.208 L 107.544 361.750 108.755 359.833 C 109.421 358.779,110.046 357.934,110.143 357.956 C 111.360 358.227,112.831 359.780,112.712 360.669 C 112.642 361.191,112.677 361.333,112.876 361.333 C 113.124 361.333,113.227 361.205,113.977 359.966 L 114.351 359.349 113.639 358.986 C 113.248 358.786,112.045 358.070,110.965 357.395 C 108.993 356.160,108.814 356.075,108.613 356.276 M277.667 360.282 C 276.111 361.185,276.147 361.152,276.333 361.499 C 276.428 361.676,276.606 361.782,276.730 361.735 C 277.168 361.567,279.565 365.345,279.226 365.667 C 278.364 366.485,275.397 367.803,275.151 367.478 C 274.295 366.347,273.265 363.981,273.479 363.638 C 273.983 362.831,273.320 362.719,272.096 363.403 C 270.983 364.026,270.755 364.667,271.647 364.667 C 272.107 364.667,272.309 364.968,274.545 369.000 C 276.802 373.068,276.953 373.405,276.678 373.737 C 276.014 374.536,276.800 374.628,278.097 373.903 C 279.188 373.293,279.394 372.667,278.503 372.667 C 278.064 372.667,275.572 368.835,275.856 368.598 C 276.077 368.414,279.644 366.500,279.767 366.500 C 279.912 366.500,281.668 369.574,281.893 370.220 C 281.951 370.387,281.919 370.674,281.821 370.856 C 281.329 371.776,282.553 371.606,284.131 370.535 C 284.447 370.320,284.189 369.833,283.758 369.833 C 283.218 369.833,283.079 369.631,280.788 365.500 C 278.517 361.407,278.379 361.097,278.664 360.753 C 278.825 360.559,278.650 359.804,278.452 359.840 C 278.433 359.843,278.079 360.042,277.667 360.282 M118.167 362.031 C 117.546 362.209,117.292 362.460,117.409 362.781 C 117.518 363.079,110.345 369.667,109.786 369.782 C 108.875 369.969,108.928 370.390,109.931 370.928 C 110.934 371.466,111.228 371.357,111.062 370.508 C 110.995 370.169,111.129 369.936,111.725 369.354 L 112.471 368.625 114.246 369.604 L 116.022 370.583 115.914 371.313 C 115.767 372.309,115.504 372.833,115.151 372.833 C 114.901 372.833,114.521 373.441,114.693 373.567 C 116.250 374.702,117.542 374.846,116.995 373.823 C 116.866 373.583,117.094 372.123,117.912 367.948 C 118.510 364.892,119.000 362.266,119.000 362.112 C 119.000 361.800,118.980 361.798,118.167 362.031 M122.249 364.334 C 122.192 364.427,122.234 364.745,122.341 365.043 C 122.505 365.497,122.412 366.488,121.758 371.234 C 121.129 375.801,121.022 376.912,121.198 377.027 C 121.354 377.128,122.568 375.994,125.417 373.088 C 128.144 370.305,129.615 368.925,130.042 368.751 C 130.385 368.611,130.667 368.400,130.667 368.282 C 130.667 368.029,128.881 367.118,128.656 367.256 C 128.440 367.390,128.460 367.894,128.691 368.125 C 128.984 368.417,128.646 368.833,125.449 372.105 L 122.559 375.064 123.107 370.923 C 123.734 366.193,123.790 365.961,124.345 365.831 C 125.097 365.653,124.894 365.268,123.752 364.705 C 122.567 364.121,122.406 364.081,122.249 364.334 M269.167 364.833 C 268.571 365.192,267.033 365.951,265.750 366.518 C 264.467 367.085,263.385 367.576,263.345 367.610 C 263.292 367.655,263.819 368.911,264.263 369.796 C 264.442 370.153,264.797 369.507,264.776 368.864 L 264.750 368.085 265.752 367.554 L 266.753 367.024 268.877 371.415 C 270.972 375.747,271.167 376.267,270.828 376.605 C 270.605 376.828,270.799 377.333,271.106 377.333 C 271.639 377.333,273.363 376.317,273.264 376.060 C 273.211 375.920,273.167 375.775,273.167 375.736 C 273.167 375.698,273.028 375.667,272.859 375.667 C 272.361 375.667,272.138 375.293,269.946 370.789 L 267.856 366.494 268.673 366.080 C 269.700 365.560,270.075 365.560,270.598 366.083 C 271.524 367.009,271.712 366.577,270.998 365.162 C 270.406 363.989,270.529 364.011,269.167 364.833 M116.779 366.958 C 116.507 368.402,116.263 369.609,116.238 369.640 C 116.167 369.729,113.333 368.117,113.333 367.987 C 113.333 367.878,117.102 364.333,117.219 364.333 C 117.249 364.333,117.051 365.515,116.779 366.958 M130.932 368.604 C 130.874 368.754,130.913 368.979,131.018 369.105 C 131.314 369.462,131.125 370.053,129.408 374.121 C 127.613 378.371,127.457 378.667,127.007 378.667 C 126.739 378.667,126.349 379.264,126.526 379.403 C 126.729 379.561,132.846 382.041,132.897 381.986 C 133.051 381.818,134.000 379.826,134.000 379.671 C 134.000 379.327,133.468 379.513,133.058 380.000 C 132.499 380.664,131.806 380.658,130.110 379.976 C 128.465 379.315,128.492 379.459,129.552 376.952 L 130.447 374.837 131.349 375.293 C 132.122 375.685,132.246 375.813,132.220 376.195 C 132.196 376.562,132.581 376.996,132.754 376.796 C 133.563 375.857,133.806 373.688,133.022 374.396 C 132.625 374.756,130.833 374.442,130.833 374.013 C 130.833 373.887,132.483 369.962,132.574 369.871 C 132.686 369.759,135.141 370.852,135.354 371.109 C 135.470 371.248,135.606 371.668,135.657 372.043 C 135.793 373.042,136.098 372.998,136.580 371.909 C 137.109 370.711,137.105 370.562,136.542 370.422 C 136.290 370.359,135.021 369.864,133.722 369.321 C 131.107 368.227,131.079 368.220,130.932 368.604 M257.667 370.151 C 257.071 370.402,256.591 370.696,256.600 370.804 C 256.640 371.273,256.683 371.333,256.981 371.333 C 257.505 371.333,259.263 375.138,258.905 375.495 C 258.736 375.662,254.813 377.208,254.751 377.131 C 254.209 376.451,253.204 372.933,253.500 372.750 C 253.701 372.626,253.711 372.328,253.523 372.032 C 253.408 371.850,251.478 372.416,251.026 372.764 C 250.848 372.902,251.240 373.500,251.507 373.500 C 252.138 373.500,255.748 382.399,255.365 383.011 C 254.793 383.927,255.221 384.108,256.633 383.544 C 257.709 383.116,257.780 383.056,257.646 382.698 C 257.567 382.485,257.432 382.356,257.345 382.410 C 256.924 382.669,254.903 378.358,255.275 377.995 C 255.388 377.885,259.247 376.333,259.408 376.333 C 259.658 376.333,261.027 380.586,260.862 380.850 C 260.628 381.224,260.610 381.612,260.820 381.742 C 260.991 381.848,263.335 381.021,263.331 380.856 C 263.325 380.630,263.069 380.374,262.750 380.274 C 262.260 380.122,262.144 379.880,260.414 375.423 C 258.809 371.286,258.691 370.876,259.017 370.550 C 259.201 370.366,259.076 369.655,258.864 369.680 C 258.801 369.688,258.262 369.900,257.667 370.151 M138.120 371.661 C 138.073 371.841,138.139 372.075,138.267 372.181 C 138.618 372.472,138.610 372.500,137.001 376.988 C 135.352 381.587,135.252 381.803,134.708 381.941 C 134.016 382.117,134.257 382.615,135.208 382.973 C 136.254 383.368,136.487 383.239,136.194 382.430 C 136.000 381.893,136.074 381.618,137.450 377.756 C 138.254 375.499,138.930 373.712,138.952 373.785 C 138.973 373.857,139.402 376.385,139.904 379.402 C 140.767 384.582,141.022 385.551,141.361 384.944 C 141.425 384.830,142.150 382.865,142.971 380.577 C 144.975 374.997,144.961 375.029,145.521 374.739 C 145.887 374.550,146.212 374.000,145.958 374.000 C 145.935 374.000,145.525 373.851,145.046 373.669 C 144.054 373.292,143.464 373.655,144.075 374.266 C 144.425 374.615,144.489 374.358,143.036 378.391 L 141.738 381.992 140.912 376.970 L 140.085 371.947 139.418 371.644 C 138.555 371.252,138.226 371.256,138.120 371.661 M249.667 373.101 C 248.592 373.569,245.802 374.501,244.436 374.848 C 243.692 375.036,243.027 375.246,242.958 375.312 C 242.862 375.405,243.399 377.393,243.583 377.629 C 243.746 377.838,244.149 377.404,244.073 377.101 C 243.884 376.349,244.246 375.893,245.319 375.531 C 245.874 375.344,246.356 375.241,246.391 375.303 C 246.600 375.683,249.333 384.367,249.333 384.654 C 249.333 384.847,249.241 385.152,249.129 385.331 C 248.702 386.016,250.814 385.939,251.640 385.240 C 251.813 385.093,251.429 384.500,251.161 384.500 C 250.718 384.500,250.664 384.369,249.012 379.322 C 248.040 376.354,247.599 374.786,247.725 374.741 C 249.701 374.030,249.581 374.029,250.282 374.773 C 251.105 375.645,251.307 375.339,250.838 373.931 C 250.433 372.715,250.479 372.747,249.667 373.101 M240.781 375.977 C 240.249 376.132,239.817 376.314,239.823 376.380 C 239.829 376.446,239.833 376.613,239.833 376.750 C 239.833 376.887,239.934 377.000,240.058 377.000 C 240.791 377.000,243.599 386.153,243.099 386.916 C 242.872 387.263,242.882 387.833,243.115 387.833 C 243.547 387.833,245.394 387.202,245.459 387.032 C 245.506 386.910,245.304 386.610,245.011 386.364 C 244.148 385.641,241.699 376.957,242.233 376.514 C 243.023 375.858,242.214 375.558,240.781 375.977 M153.917 376.612 C 153.247 376.967,153.264 376.943,153.240 377.550 C 153.215 378.202,148.242 385.861,147.637 386.179 C 147.253 386.382,147.007 386.646,147.003 386.863 C 146.997 387.123,148.877 387.532,149.022 387.303 C 149.213 387.002,149.202 386.667,149.000 386.667 C 148.699 386.667,148.825 386.185,149.348 385.336 C 149.951 384.355,149.785 384.378,151.998 384.974 L 153.746 385.446 153.876 386.181 C 154.033 387.072,153.913 387.651,153.486 388.048 C 152.999 388.503,153.086 388.620,154.125 388.914 C 154.652 389.063,155.205 389.221,155.354 389.264 C 155.723 389.371,155.890 388.699,155.573 388.383 C 155.441 388.251,155.326 388.129,155.317 388.113 C 155.308 388.097,155.177 385.464,155.025 382.264 C 154.735 376.129,154.744 376.174,153.917 376.612 M238.917 376.588 C 238.825 376.621,238.431 376.731,238.042 376.831 C 237.270 377.029,237.120 377.374,237.675 377.671 C 238.255 377.982,238.300 378.465,238.070 381.917 C 237.948 383.750,237.844 385.587,237.839 386.000 L 237.830 386.750 236.569 384.583 L 235.307 382.417 235.393 380.612 C 235.451 379.377,235.560 378.683,235.739 378.410 C 235.994 378.022,236.098 377.333,235.902 377.333 C 235.793 377.333,231.271 378.370,231.215 378.408 C 231.082 378.497,231.416 379.167,231.594 379.167 C 231.896 379.167,232.445 379.938,233.552 381.917 L 234.484 383.583 234.383 385.466 C 234.328 386.502,234.224 387.289,234.153 387.216 C 233.954 387.012,230.320 380.637,230.145 380.185 C 230.031 379.891,230.058 379.712,230.249 379.501 C 230.522 379.199,230.430 378.664,230.107 378.670 C 229.676 378.679,227.648 379.264,227.657 379.378 C 227.662 379.445,227.667 379.613,227.667 379.750 C 227.667 379.887,227.813 380.000,227.992 380.000 C 228.457 380.000,228.818 380.552,231.672 385.625 C 233.418 388.727,234.316 390.167,234.505 390.167 C 234.783 390.167,235.000 388.254,235.000 385.807 C 235.000 384.618,235.179 384.779,236.513 387.167 C 238.295 390.356,238.180 390.561,238.665 383.333 C 238.909 379.700,239.092 377.934,239.259 377.599 C 239.678 376.758,239.543 376.358,238.917 376.588 M159.000 378.089 C 159.000 378.230,159.115 378.520,159.255 378.735 C 159.490 379.093,159.457 379.372,158.831 382.270 C 157.573 388.098,157.529 388.252,156.991 388.732 C 156.402 389.256,156.374 389.464,156.875 389.583 C 158.502 389.972,162.603 390.833,162.829 390.833 C 163.068 390.833,163.667 388.894,163.667 388.121 C 163.667 387.751,163.032 388.082,162.755 388.596 C 162.213 389.603,161.695 389.760,160.053 389.415 C 159.291 389.255,158.667 389.040,158.667 388.937 C 158.670 387.596,160.730 379.527,161.177 379.109 C 161.838 378.490,161.751 378.314,160.656 378.059 C 159.423 377.771,159.000 377.779,159.000 378.089 M234.706 378.708 C 234.747 378.823,234.746 379.429,234.703 380.056 L 234.626 381.195 234.068 380.223 C 233.472 379.183,233.374 378.745,233.708 378.610 C 234.107 378.450,234.631 378.501,234.706 378.708 M153.728 381.958 C 153.808 383.929,153.785 384.499,153.624 384.497 C 153.146 384.491,150.647 383.721,150.634 383.575 C 150.611 383.317,153.407 379.177,153.520 379.302 C 153.577 379.365,153.671 380.560,153.728 381.958 M166.225 379.590 C 166.170 379.730,166.248 379.980,166.396 380.144 C 166.953 380.759,165.521 389.629,164.760 390.284 C 164.097 390.854,164.212 391.119,165.208 391.318 C 166.106 391.496,169.758 392.105,170.494 392.198 C 170.881 392.247,170.917 392.182,171.109 391.083 C 171.394 389.452,171.387 389.333,171.000 389.333 C 170.817 389.333,170.667 389.440,170.667 389.571 C 170.667 389.900,169.854 390.834,169.426 390.997 C 169.121 391.113,166.570 390.792,166.393 390.616 C 166.265 390.487,167.974 380.982,168.168 380.748 C 168.282 380.612,168.477 380.500,168.604 380.500 C 169.458 380.500,168.779 379.691,167.778 379.517 C 166.419 379.280,166.342 379.284,166.225 379.590 M224.000 379.751 C 223.215 379.942,221.142 380.254,218.367 380.600 C 217.798 380.671,217.668 380.747,217.730 380.970 C 217.774 381.124,217.859 381.644,217.920 382.125 C 218.063 383.253,218.562 383.385,218.730 382.339 C 218.854 381.561,219.121 381.381,220.357 381.236 L 221.250 381.131 221.961 385.774 C 222.759 390.978,222.764 391.045,222.417 391.333 C 222.279 391.447,222.167 391.714,222.167 391.927 C 222.167 392.344,222.062 392.339,224.083 392.015 C 224.849 391.893,225.139 391.285,224.511 391.121 C 224.324 391.072,224.106 390.856,224.026 390.641 C 223.835 390.125,222.429 381.015,222.526 380.919 C 223.127 380.318,225.333 380.863,225.333 381.612 C 225.333 381.734,225.483 381.833,225.667 381.833 C 226.058 381.833,226.050 381.898,225.816 380.555 C 225.608 379.359,225.610 379.360,224.000 379.751 M173.777 381.359 C 173.393 384.554,174.001 385.342,174.646 382.485 C 175.068 380.612,175.081 380.708,174.388 380.569 C 173.886 380.469,173.883 380.473,173.777 381.359 M216.333 380.945 C 214.602 381.118,214.176 381.467,215.014 382.023 C 215.346 382.244,216.014 386.209,215.761 386.461 C 215.660 386.562,211.299 387.022,211.218 386.940 C 210.880 386.602,210.763 382.599,211.083 382.333 C 211.697 381.824,211.392 381.446,210.458 381.559 C 209.977 381.616,209.377 381.664,209.125 381.665 C 208.569 381.667,208.481 382.222,208.994 382.497 C 209.467 382.750,209.616 383.492,209.998 387.500 C 210.442 392.164,210.448 392.431,210.111 392.803 C 209.503 393.475,209.735 393.724,210.858 393.607 C 211.421 393.548,212.021 393.500,212.191 393.500 C 212.409 393.500,212.500 393.378,212.500 393.083 C 212.500 392.829,212.405 392.667,212.256 392.667 C 212.122 392.667,211.932 392.518,211.835 392.337 C 211.644 391.979,211.173 387.834,211.324 387.832 C 211.443 387.830,214.183 387.537,215.184 387.419 L 215.952 387.328 216.065 388.706 C 216.127 389.463,216.222 390.468,216.276 390.938 C 216.360 391.670,216.323 391.844,216.012 392.155 C 215.180 392.987,215.723 393.215,217.792 392.901 C 218.373 392.812,218.563 392.291,218.081 392.105 C 217.653 391.941,217.542 391.361,217.097 386.973 C 216.581 381.886,216.587 382.246,217.009 381.825 C 217.323 381.510,217.339 380.788,217.030 380.860 C 216.968 380.875,216.654 380.913,216.333 380.945 M177.483 381.376 C 175.190 382.900,175.732 386.137,178.574 387.891 C 180.234 388.915,180.430 391.274,178.937 392.252 C 178.008 392.860,176.584 391.805,176.170 390.201 C 175.860 389.002,175.859 389.000,175.609 389.000 C 175.330 389.000,175.229 389.445,175.072 391.379 C 174.949 392.899,175.010 393.038,175.637 392.647 C 175.871 392.500,176.085 392.537,176.634 392.817 C 180.534 394.806,182.965 388.421,179.179 386.132 C 177.083 384.865,176.585 383.523,177.746 382.270 C 178.648 381.297,179.779 381.930,180.299 383.699 C 180.712 385.105,181.104 385.041,181.250 383.542 C 181.311 382.923,181.399 382.279,181.446 382.111 C 181.514 381.869,181.450 381.816,181.141 381.855 C 180.921 381.884,180.460 381.707,180.086 381.453 C 179.240 380.876,178.279 380.847,177.483 381.376 M202.809 382.169 C 200.111 383.595,199.370 389.091,201.434 392.361 C 202.513 394.070,205.034 394.545,207.467 393.498 L 208.333 393.126 208.333 391.500 C 208.333 388.908,208.302 388.833,207.229 388.833 C 206.207 388.833,206.057 389.101,206.699 389.784 C 208.281 391.468,205.715 394.106,203.665 392.903 C 201.193 391.451,200.928 384.435,203.290 382.975 C 204.429 382.271,206.407 383.109,206.740 384.438 C 206.928 385.185,207.500 384.948,207.498 384.125 C 207.494 382.566,207.336 382.125,206.816 382.228 C 206.558 382.280,206.084 382.212,205.762 382.078 C 204.943 381.735,203.548 381.779,202.809 382.169 M188.167 382.234 C 188.167 382.380,188.327 382.660,188.522 382.855 C 189.148 383.482,188.800 392.953,188.144 393.124 C 187.951 393.175,187.833 393.355,187.833 393.603 C 187.833 393.988,187.873 394.000,189.167 394.000 C 190.647 394.000,190.802 393.853,190.167 393.045 C 189.888 392.691,189.833 392.369,189.833 391.082 C 189.833 388.630,189.884 388.500,190.838 388.500 L 191.635 388.500 192.765 391.333 L 193.894 394.167 194.702 394.167 C 195.689 394.167,195.894 393.849,195.264 393.297 C 194.987 393.054,194.506 392.107,193.934 390.675 L 193.039 388.433 193.759 387.733 C 195.313 386.222,195.104 383.324,193.380 382.476 C 192.334 381.961,188.167 381.768,188.167 382.234 M196.500 382.432 C 196.500 382.578,196.650 382.888,196.833 383.121 C 197.149 383.522,197.167 383.797,197.167 388.271 C 197.167 392.817,197.154 393.005,196.833 393.205 C 195.968 393.745,196.407 394.167,197.833 394.167 C 199.287 394.167,199.619 393.843,198.831 393.193 C 198.511 392.929,198.494 392.700,198.456 388.112 L 198.417 383.307 198.792 383.002 C 199.023 382.814,199.128 382.594,199.066 382.431 C 198.916 382.041,196.500 382.042,196.500 382.432 M192.331 383.082 C 193.101 383.480,193.333 383.955,193.333 385.129 C 193.333 386.955,192.658 387.667,190.925 387.667 L 190.000 387.667 190.002 385.875 C 190.005 382.725,190.498 382.134,192.331 383.082 M144.093 384.704 C 143.746 385.199,143.763 385.941,144.125 386.160 C 144.387 386.318,144.353 386.393,143.792 386.894 C 142.753 387.822,143.045 388.294,144.159 387.487 C 145.246 386.699,145.816 385.173,145.238 384.595 C 144.868 384.225,144.396 384.270,144.093 384.704 " stroke="none" fill="#ff1a1a" fill-rule="evenodd"/></g></svg>